<?xml version="1.0" encoding="UTF-8"?>
<svg id="Capa_1" data-name="Capa 1" xmlns="http://www.w3.org/2000/svg" viewBox="0 0 13.99 20.95">
  <defs>
    <style>
      .cls-1 {
        fill: #286bce;
      }
    </style>
  </defs>
  <path class="cls-1" d="m7.4,0c.5.09,1.01.15,1.5.28,1.21.32,2.24.96,3.1,1.85.92.95,1.53,2.07,1.81,3.35.37,1.75.13,3.41-.76,4.97-.37.65-.84,1.22-1.39,1.73-.07.06-.1.19-.1.28.1,2.47.2,4.95.3,7.42.02.55-.25.93-.73,1.04-.34.08-.61-.05-.86-.27-1.05-.9-2.1-1.81-3.15-2.71-.04-.04-.08-.07-.14-.12-.31.27-.63.54-.94.81-.79.68-1.57,1.36-2.36,2.03-.47.4-1.03.36-1.39-.09-.15-.18-.2-.4-.19-.63.05-1.23.1-2.45.15-3.68.05-1.29.11-2.57.16-3.86,0-.07-.05-.17-.1-.22-1.11-1.01-1.84-2.24-2.15-3.7C-.21,6.74.04,5.07.94,3.52,1.83,1.96,3.15.9,4.85.35c.49-.16,1.02-.21,1.54-.31.07-.01.13-.02.2-.03.27,0,.55,0,.82,0Zm-.41,1.38c-3.09,0-5.6,2.5-5.62,5.6-.02,3.09,2.51,5.62,5.61,5.63,3.09,0,5.6-2.5,5.62-5.6.02-3.09-2.51-5.62-5.61-5.63Zm3.22,11.83c-2.16,1.04-4.3,1.03-6.44,0-.08,1.93-.16,3.83-.24,5.78.1-.08.17-.14.23-.19.84-.72,1.67-1.44,2.51-2.16.53-.45.92-.45,1.45,0,.84.72,1.67,1.44,2.51,2.16.06.06.13.11.23.19-.08-1.95-.16-3.85-.24-5.78Z"/>
  <path class="cls-1" d="m6.11,7.87c.63-.63,1.27-1.28,1.92-1.92.35-.35.69-.7,1.04-1.04.24-.23.56-.27.83-.11.26.15.41.46.32.75-.04.13-.12.27-.21.36-1.13,1.14-2.27,2.28-3.41,3.41-.33.33-.72.33-1.05,0-.61-.61-1.22-1.23-1.82-1.85-.29-.3-.29-.71-.02-.99.27-.27.69-.27.99.02.47.45.93.9,1.41,1.36Z"/>
</svg>