<?xml version="1.0" encoding="UTF-8"?>
<svg id="Capa_1" data-name="Capa 1" xmlns="http://www.w3.org/2000/svg" viewBox="0 0 14.9 16.54">
  <defs>
    <style>
      .cls-1 {
        fill: #286bce;
      }
    </style>
  </defs>
  <path class="cls-1" d="m11.36,6.69c0-1,0-1.95,0-2.9,0-.93.67-1.66,1.6-1.78.84-.1,1.67.48,1.89,1.34.04.17.05.35.05.53,0,1.54,0,3.08,0,4.62,0,1.13-.65,1.84-1.78,2.02-.83.14-1.6-.09-2.38-.3-.21-.06-.42-.11-.68-.18,0,.15,0,.27,0,.39,0,1.57,0,3.14,0,4.72,0,.93-.48,1.4-1.42,1.4-1.56,0-3.12,0-4.68,0-1.01,0-1.45-.42-1.5-1.44,0-.04-.01-.08-.02-.14-1.16.16-1.86-.45-2.26-1.44-.14-.34-.23-.78-.14-1.12.34-1.22.69-2.45,1.17-3.62.69-1.67,2.1-2.42,3.82-2.52,1.42-.09,2.86-.05,4.28,0,.56.02,1.12.23,1.68.35.11.02.21.05.36.08Zm-2.39,5.6c0-.95,0-1.9,0-2.86,0-.5.3-.72.78-.6.72.18,1.42.42,2.15.55.42.08.88.05,1.31-.03.45-.08.61-.36.61-.82,0-1.07,0-2.15,0-3.22,0-.5,0-1,0-1.49,0-.42-.29-.71-.67-.72-.37-.01-.66.26-.71.65,0,.09,0,.18,0,.27,0,1.1,0,2.19,0,3.29,0,.51-.28.72-.77.61-.13-.03-.25-.08-.38-.11-.7-.16-1.39-.42-2.09-.47-1.3-.08-2.61-.07-3.92,0-1.5.07-2.67.7-3.21,2.19-.32.89-.57,1.81-.88,2.71-.16.45-.1.83.16,1.22.32.47.72.59,1.22.31,1.21-.69,2.41-1.39,3.62-2.09.43-.25.56-.63.35-1-.2-.35-.62-.43-1.04-.2-.56.32-1.11.64-1.67.96-.33.19-.65.12-.81-.16-.16-.28-.07-.58.27-.78.59-.35,1.18-.69,1.78-1.03.48-.27.99-.31,1.5-.11.67.26,1.06.77,1.13,1.47.08.73-.23,1.33-.86,1.71-.9.54-1.8,1.08-2.73,1.57-.45.23-.62.52-.56,1.01.03.25.09.35.35.35,1.58,0,3.17,0,4.75,0,.26,0,.34-.09.34-.35-.01-.94,0-1.88,0-2.82Z"/>
  <path class="cls-1" d="m6.27,0c1.68,0,3.03,1.36,3.04,3.04,0,1.69-1.38,3.07-3.06,3.05-1.69-.02-3.03-1.38-3.02-3.06C3.24,1.35,4.59,0,6.27,0Zm-1.96,3.05c0,1.09.87,1.95,1.97,1.94,1.07,0,1.94-.87,1.95-1.94,0-1.07-.89-1.97-1.96-1.97-1.08,0-1.95.88-1.95,1.97Z"/>
</svg>