<?xml version="1.0" encoding="UTF-8"?>
<svg id="Capa_1" data-name="Capa 1" xmlns="http://www.w3.org/2000/svg" viewBox="0 0 15.06 11.66">
  <defs>
    <style>
      .cls-1 {
        fill: #286bce;
        stroke: #286bce;
        stroke-linecap: round;
        stroke-linejoin: round;
        stroke-width: .1px;
      }
    </style>
  </defs>
  <path class="cls-1" d="m.08,9.65c0-.05-.03-.11-.03-.16,0-1.96,0-3.92,0-5.89,0-.06.02-.13.03-.19.21-.21.42-.42.64-.63,0,.04.02.07.02.11,0,2.43,0,4.86,0,7.28,0,.04-.01.08-.02.12-.21-.21-.42-.43-.64-.64Z"/>
  <path class="cls-1" d="m3.42.08c.06,0,.12-.03.17-.03,1.86,0,3.71,0,5.57,0,.05,0,.11.02.16.03.21.21.42.42.63.63-.06,0-.12.03-.18.03-2.29,0-4.59,0-6.88,0-.04,0-.07-.01-.11-.02.21-.21.42-.43.63-.64Z"/>
  <path class="cls-1" d="m9.96.71c-.21-.21-.42-.42-.63-.63.04,0,.08-.03.11-.03.65,0,1.3,0,1.96,0,.53,0-.46.02.07.03.03,0,.07.02.1.03-.21.21.21.42,0,.63-.05,0,.05.02,0,.02-.23,0,.25,0,0,0,0,.23,0,.45,0,.66,0,.08-.02.15-.03.22-.1.1-.21.2-.31.31-.12-.11-.24-.23-.37-.34,0-.23-.01-.45-.02-.68,0-.07,0-.13-.01-.21-.24,0-.47,0-.7,0-.05,0-.11-.02-.16-.03Z"/>
  <path class="cls-1" d="m.72,11.53c-.21.21-.42-.13-.63.08-.01-.04-.03-.07-.03-.11,0-1.09,0-.65,0-1.74,0-.03.02-.07.03-.1.21.21.42.43.64.64.01.18.02.36.04.58h.56c.17.18.34.36.51.53,0,.02,0,.04,0,.07-.06.02-.12.06-.18.06-.16,0-.32,0-.48,0-.14,0-.28,0-.43,0,0,.25,0-.51,0-.28,0,.09-.01.19-.02.28Z"/>
  <path class="cls-1" d="m.72,2.79c-.21.21-.42.42-.64.63,0-.03-.03-.07-.03-.1,0-.53,0-1.06,0-1.59,0-.44.18-.82.48-1.14,0,0,.02,0,.03-.01.15.15.31.3.46.45-.01.03-.02.07-.04.09-.18.21-.25.45-.25.72,0,.27,0,.55,0,.82,0,.05-.01.09-.02.14Z"/>
  <path class="cls-1" d="m1.03,1.02c-.15-.15-.31-.3-.46-.45.23-.27.54-.41.88-.48.11-.02.22-.03.33-.03.51,0,1.03,0,1.54,0,.03,0,.07.02.1.03-.21.21-.42.43-.63.64-.05,0-.11.02-.16.02-.3,0-.61,0-.91,0-.21,0-.41.08-.58.21-.03.03-.08.04-.12.06Z"/>
  <path class="cls-1" d="m10.86,2.31s-.03-.01-.03-.02c0-.22.01-.45.02-.67.12.11.24.23.37.34,0,0,0,.01,0,.02-.12.11-.24.23-.36.34Z"/>
  <path class="cls-1" d="m11.22,1.98s0-.01,0-.02c.1-.1.21-.2.31-.31.01.02.03.04.03.06,0,.17,0,.34,0,.51,0,.02-.02.05-.04.07-.1-.1-.2-.21-.3-.31Z"/>
  <path class="cls-1" d="m2.34,10.9c.05-.01.1-.03.16-.04.34,0,.69,0,1.03,0,.05,0,.1,0,.15,0-.06-.22-.14-.42-.18-.62-.03-.16-.01-.32-.02-.48.29-.29.58-.58.87-.87,0,.04,0,.08-.02.11-.29.6-.27,1.18.1,1.74.11.17.12.36.03.54-.1.18-.25.27-.46.27-.64,0-1.29,0-1.93,0-.08,0-.15-.04-.23-.06,0-.02,0-.04,0-.07.17-.17.34-.34.51-.51Z"/>
  <path class="cls-1" d="m2.34,10.9c-.17.17-.34.34-.51.51-.17-.18-.34-.36-.51-.53.32,0,.64,0,.96,0,.02,0,.04.02.06.03Z"/>
  <path class="cls-1" d="m11.25,11.19c-.13.12-.25.24-.38.36-.08,0-.15-.02-.23-.02-1.02,0-2.03,0-3.05,0-.2,0-.35-.07-.45-.24-.12-.19-.11-.38.01-.57.15-.22.24-.47.28-.74.09-.64-.23-1.3-.78-1.63-.61-.36-1.34-.32-1.9.12-.11.09-.2.2-.29.3-.03.03-.07.06-.11.09-.29.29-.58.58-.87.87,0-.09-.03-.18-.01-.27.13-.9.61-1.54,1.45-1.88,1.01-.41,2.19-.08,2.82.87.45.68.51,1.4.24,2.16-.02.07-.06.14-.1.22.06,0,.1,0,.14,0,.89,0,1.78,0,2.68,0,.05,0,.11-.03.16-.05.13.12.27.24.4.36,0,0,0,.01,0,.02Z"/>
  <path class="cls-1" d="m11.24,11.18c-.13-.12-.27-.24-.4-.36,0-.04-.01-.08-.01-.13,0-1.03,0-2.05,0-3.08,0-.15.03-.28.14-.39.18-.18.42-.21.66-.06.2.12.41.22.65.27.59.13,1.3-.15,1.64-.65.38-.55.43-1.13.14-1.74-.35-.73-1.26-1.08-2.01-.77-.12.05-.24.11-.35.18-.21.13-.41.12-.62,0-.17-.1-.25-.26-.25-.46,0-.51,0-1.02,0-1.53,0-.05.02-.1.03-.15.12-.11.24-.23.36-.34.1.1.2.21.3.31.01.06.04.11.04.17,0,.35,0,.7,0,1.06,0,.05,0,.09,0,.14,1.42-.46,2.55-.11,3.22,1.25.41.83.25,1.7-.33,2.4-.77.93-1.76,1.09-2.88.63,0,.06,0,.11,0,.16,0,.86,0,1.72,0,2.59,0,.07-.01.14-.02.2-.1.1-.2.19-.3.29Z"/>
</svg>