<?xml version="1.0" encoding="UTF-8"?>
<svg id="Capa_1" data-name="Capa 1" xmlns="http://www.w3.org/2000/svg" viewBox="0 0 19.57 12.34">
  <defs>
    <style>
      .cls-1 {
        fill: #286bce;
      }
    </style>
  </defs>
  <path class="cls-1" d="m16.05,7.39c-.23.1-.28.21-.2.43.23.66-.27,1.35-.98,1.41-.07,0-.13,0-.21,0-.13.71-.57,1.03-1.26,1.05-.25.77-.52.99-1.26,1.04,0,.03-.03.06-.03.09-.13.88-1.25,1.25-1.95.63-.1-.09-.17-.11-.29-.05-.81.36-1.6.05-1.96-.75-.1-.22-.25-.39-.48-.48-.47-.19-.81-.5-1.01-.97-.1-.23-.28-.38-.52-.47-.44-.16-.74-.46-.93-.89-.15-.34-.4-.56-.81-.5-.06,0-.12,0-.18,0-.27-.03-.49-.03-.6.33-.11.33-.44.48-.8.48-.54,0-1.08,0-1.62,0-.51,0-.91-.39-.95-.9,0-.06,0-.12,0-.18C0,5.47,0,3.29,0,1.1,0,.42.38.04,1.06.04c.5,0,.99,0,1.49,0,.56,0,.96.39.98.96,0,.13.04.19.17.23.38.11.76.23,1.13.36.24.08.46.06.68-.08.58-.37,1.18-.71,1.77-1.07.51-.32,1-.27,1.48.04.2.13.39.28.58.43.1.08.17.08.27,0,.24-.2.49-.39.74-.59.44-.35,1.03-.51,1.61,0,.45.39.94.72,1.39,1.11.31.26.65.33,1.01.21.54-.19,1.07-.42,1.6-.65.06-.03.1-.12.12-.19.14-.48.47-.75.96-.75.52,0,1.04,0,1.55,0,.56,0,.97.39.98.96,0,2.25,0,4.5,0,6.75,0,.59-.42.97-1.01.98-.49,0-.98,0-1.46,0-.65,0-1.05-.4-1.05-1.05,0-.09,0-.18,0-.29Zm-3.66-.57c.04-.14.07-.26.12-.38.33-.72,1.32-.88,1.9-.31.32.31.62.65.92.97.19-.13.35-.28.54-.38.14-.08.18-.17.18-.32,0-1.5,0-3,0-4.5,0-.07,0-.14,0-.2-.47.18-.92.38-1.39.52-.64.2-1.23.12-1.76-.35-.44-.39-.93-.73-1.39-1.1-.2-.16-.4-.18-.6-.05-.3.21-.59.45-.9.68.31.23.59.45.87.66.87.66,1.75,1.32,2.62,1.98.25.19.29.37.1.56-.93.93-2.09,1.35-3.4.85-.44-.17-.86-.42-1.28-.65-.4-.22-.63-.2-.94.12-.89.93-1.78,1.87-2.67,2.8.08.13.18.26.23.4.12.3.33.49.63.6.4.15.69.43.86.82.11.26.29.46.55.56.46.18.77.49.97.94.17.39.6.53,1.02.36-.22-.23-.44-.46-.65-.69-.53-.61-.28-1.51.49-1.76.15-.05.31-.05.47-.08.13-.68.56-1.02,1.26-1.02.13-.69.55-1.02,1.25-1.04Zm-8.85.44c.35,0,.68,0,1.01,0,.25,0,.43-.12.6-.3.8-.86,1.62-1.71,2.43-2.56.3-.32.67-.46,1.1-.35.22.06.43.17.64.26.43.2.85.46,1.3.61.84.27,1.58.04,2.26-.54-.29-.22-.57-.43-.84-.64-1.17-.88-2.33-1.76-3.5-2.64-.4-.31-.59-.31-1.02-.06-.58.35-1.17.71-1.75,1.06-.28.17-.58.24-.9.15-.19-.05-.39-.11-.58-.17-.24-.07-.49-.15-.74-.23v5.41Zm15.39-2.88c0-1.09,0-2.19,0-3.28,0-.32-.11-.43-.43-.43-.46,0-.93,0-1.39,0-.31,0-.42.11-.42.42,0,2.19,0,4.38,0,6.57,0,.31.12.43.44.43.44,0,.88,0,1.33,0,.38,0,.48-.1.48-.47,0-1.08,0-2.16,0-3.24Zm-18.29,0c0,1.09,0,2.19,0,3.28,0,.32.11.43.43.43.46,0,.91,0,1.37,0,.32,0,.44-.12.44-.43,0-2.19,0-4.38,0-6.57,0-.32-.12-.42-.44-.43-.45,0-.9,0-1.35,0-.36,0-.46.1-.46.45,0,1.09,0,2.17,0,3.26Zm10.42,4.07c-.24.05-.41.13-.5.33-.09.19-.02.36.12.51.14.15.28.29.42.44.25.26.49.53.75.78.22.21.57.2.77,0,.18-.19.16-.44-.06-.68-.35-.37-.69-.75-1.05-1.11-.12-.12-.29-.18-.44-.27Zm4.27-.3c-.11-.17-.17-.3-.26-.4-.34-.37-.69-.73-1.04-1.09-.08-.08-.18-.16-.29-.2-.23-.09-.5,0-.62.18-.13.19-.1.4.1.61.15.16.31.33.46.49.22.23.44.47.67.7.18.18.44.23.64.1.13-.08.22-.24.34-.37Zm-3.01-.74c-.24.05-.41.14-.5.33-.08.19-.03.36.12.51.13.13.26.27.39.41.26.27.51.55.78.81.22.21.57.2.77,0,.18-.19.16-.43-.06-.68-.35-.37-.69-.75-1.05-1.1-.12-.12-.29-.18-.44-.27Zm-2.52,2.07c-.24.05-.41.13-.51.32-.09.19-.03.36.11.51.21.22.41.44.62.65.18.19.35.39.54.57.23.21.57.21.77,0,.19-.19.17-.44-.07-.69-.34-.37-.68-.74-1.04-1.09-.12-.12-.29-.19-.43-.28Z"/>
</svg>