<?xml version="1.0" encoding="UTF-8"?>
<svg id="Capa_1" data-name="Capa 1" xmlns="http://www.w3.org/2000/svg" viewBox="0 0 15.92 21.53">
  <defs>
    <style>
      .cls-1 {
        fill: #286bce;
      }
    </style>
  </defs>
  <path class="cls-1" d="m8.32,0c.13.03.27.06.4.1,1.15.34,1.9,1.09,2.16,2.26.26,1.18-.12,2.17-1.02,2.96-.05.05-.11.09-.16.15,1.89-.78,3.41-.43,4.35,1.48.53,1.07.29,2.6-1.04,3.61.08.03.14.05.2.08,1.04.4,1.72,1.38,1.74,2.5,0,.42,0,.84,0,1.26,0,.24-.11.37-.3.37-.2,0-.32-.14-.32-.38,0-.41,0-.81,0-1.22,0-1.13-.82-2.02-1.95-2.07-.75-.04-1.5-.03-2.24,0-1.02.05-1.86.98-1.86,2,0,.56,0,1.12,0,1.7.37-.04.72-.09,1.08-.12,1.16-.09,2.15.3,2.89,1.17.38.44.76.68,1.34.59.14-.02.29,0,.44,0,.2-.01.3-.11.31-.32,0-.11,0-.21,0-.32.02-.19.15-.32.33-.31.16,0,.29.13.29.32,0,.24-.02.47-.03.72.19,0,.4,0,.61,0,.27,0,.39.11.39.38,0,1.42,0,2.83,0,4.25,0,.18-.08.29-.21.38h-2.9c-.14-.09-.23-.21-.22-.4,0-.05-.05-.13-.1-.15-1.19-.63-2.38-1.26-3.58-1.88-.22-.11-.31-.25-.23-.42.08-.19.26-.25.49-.14.83.42,1.65.86,2.47,1.29.31.16.63.33.97.51,0-.1.01-.17.01-.23,0-.94,0-1.88,0-2.82,0-.14-.03-.23-.14-.33-.19-.18-.37-.36-.54-.56-.73-.83-1.62-1.23-2.73-1.09-.77.1-1.54.17-2.31.25-.44.05-.67.27-.69.66.07,0,.13,0,.2,0,.42,0,.84,0,1.26,0,.69,0,1.26.28,1.72.79.16.18.17.35.03.48-.14.13-.31.1-.47-.08-.35-.4-.79-.59-1.32-.59-.45,0-.91,0-1.36,0-.27,0-.46-.11-.61-.34-.03-.05-.13-.1-.19-.1-.46,0-.92,0-1.38.05-.73.07-1.37-.14-1.96-.52-.28-.18-.55-.36-.82-.55-.24-.16-.45-.12-.65.15.37.31.75.62,1.12.93.11.09.24.17.35.26.46.39.98.55,1.59.58,1.07.06,2.13.17,3.19.31.34.05.67.24.99.38.15.07.17.23.11.38-.06.16-.19.19-.35.16-.03,0-.05-.02-.08-.03-.59-.34-1.25-.36-1.9-.42-.88-.08-1.76-.13-2.63-.24-.25-.03-.53-.13-.73-.28-.72-.53-1.42-1.09-2.12-1.65-.2-.16-.23-.42-.12-.65.18-.36.47-.56.9-.61,0-.08,0-.16,0-.24,0-.53-.03-1.07.03-1.6.14-1.09.77-1.82,1.78-2.22.03-.01.06-.02.05-.02-.18-.2-.37-.4-.55-.61-.8-.97-.89-2.41-.22-3.46.08-.13.19-.24.34-.19.1.03.21.14.25.24.03.08-.03.21-.08.31-.46.86-.45,1.7.07,2.53.58.92,1.76,1.31,2.78.94,1.07-.39,1.7-1.42,1.56-2.57-.12-1.06-1.01-1.93-2.08-2.05-.48-.05-.93.02-1.36.24-.15.08-.31.08-.41-.07-.05-.09-.06-.23-.03-.32.02-.08.13-.14.22-.18.9-.42,1.8-.41,2.69.04.06.03.13.06.19.08,0-.01.02-.03.03-.04-.04-.04-.07-.07-.11-.11-.98-.83-1.36-1.88-1.04-3.12C5.4,1,6.25.27,7.51.04,7.54.03,7.57.01,7.6,0c.24,0,.48,0,.71,0Zm-.67,14.87c0-.66.03-1.29,0-1.92-.06-.98-.9-1.81-1.88-1.85-.77-.03-1.54-.04-2.31,0-1.01.05-1.85.97-1.86,1.98,0,.53,0,1.07,0,1.6,0,.09.06.21.13.25.36.24.72.48,1.1.68.19.1.42.19.63.19.69,0,1.38-.02,2.08-.05.06,0,.13-.05.16-.09.22-.42.59-.63,1.04-.7.29-.05.59-.07.91-.1Zm3.66-4.4c1.32,0,2.39-1.08,2.38-2.4,0-1.31-1.07-2.37-2.39-2.36-1.31,0-2.37,1.05-2.38,2.37,0,1.32,1.07,2.39,2.38,2.39ZM7.98.62c-1.33,0-2.39,1.04-2.4,2.37,0,1.3,1.05,2.39,2.33,2.39,1.35,0,2.42-1.04,2.43-2.37,0-1.32-1.05-2.39-2.36-2.39Zm-1.16,5.39c1.21,1.68,1.04,3.19-.47,4.56.89.4.92.42,1.62,1.33.37-.65.9-1.09,1.65-1.33-.75-.55-1.19-1.26-1.29-2.15-.1-.9.19-1.69.81-2.4h-2.32Zm6.41,13.64v1.25h2.05v-3.73h-2.04v.62c.17,0,.32,0,.47,0,.52,0,.94.42.94.93,0,.5-.41.92-.92.93-.16,0-.32,0-.5,0Zm0-.6c.19,0,.35.01.51,0,.17-.02.28-.12.3-.3.01-.18-.07-.31-.24-.34-.18-.02-.37,0-.56,0v.64Z"/>
</svg>