<?xml version="1.0" encoding="UTF-8"?>
<svg id="Capa_1" data-name="Capa 1" xmlns="http://www.w3.org/2000/svg" viewBox="0 0 13.7 22.83">
  <defs>
    <style>
      .cls-1 {
        fill: #286bce;
      }
    </style>
  </defs>
  <path class="cls-1" d="m7.76,0c.47.04.94.08,1.41.13,1.44.16,2.86.47,4.24.91.28.09.36.35.21.66-.43.89-.86,1.77-1.3,2.66-.51,1.05-1.03,2.11-1.54,3.16-.21.44-.47.49-.84.18-.45-.38-.9-.75-1.34-1.13-.3.65-.23,1.3-.12,1.97.32,2.07.62,4.14.93,6.21.22,1.45.43,2.89.64,4.34.01.09,0,.22-.05.28-1.04,1.15-2.09,2.3-3.15,3.46-.05-.04-.09-.08-.13-.12-.99-1.09-1.98-2.17-2.98-3.26-.1-.11-.14-.21-.11-.38.3-1.95.58-3.91.87-5.86.27-1.84.56-3.67.8-5.51.05-.36-.1-.75-.17-1.16-.11.08-.16.12-.22.17-.39.32-.77.65-1.16.98-.4.34-.64.29-.87-.19-.42-.86-.84-1.72-1.26-2.58C1.12,3.87.62,2.83.11,1.79-.11,1.34,0,1.13.47.98,2.18.45,3.93.13,5.72.04c.06,0,.11-.02.17-.04.62,0,1.25,0,1.87,0Zm-.91,21.61c.66-.72,1.29-1.45,1.97-2.13.33-.33.38-.64.31-1.08-.31-1.94-.59-3.89-.88-5.84-.22-1.48-.44-2.95-.66-4.43-.02-.13-.07-.17-.19-.17-.37,0-.74,0-1.12,0-.12,0-.16.04-.18.16-.11.79-.23,1.57-.35,2.36-.27,1.84-.55,3.69-.82,5.53-.14.94-.28,1.88-.42,2.82-.01.09,0,.22.05.28.75.83,1.5,1.65,2.28,2.49ZM12.12,1.53c-3.53-.92-7.01-.92-10.54,0,.07.04.11.07.15.08,1.66.8,3.31,1.6,4.97,2.4.09.04.23.03.32-.01,1.63-.78,3.25-1.56,4.87-2.35.06-.03.11-.06.21-.11Zm-1.91,5.31c.73-1.49,1.44-2.97,2.16-4.44-.01,0-.03-.02-.04-.03-1.57.75-3.13,1.51-4.73,2.28.88.74,1.73,1.46,2.61,2.19Zm-6.72,0c.88-.74,1.73-1.46,2.6-2.19-1.6-.77-3.17-1.52-4.73-2.28,0,.01-.02.03-.03.04.72,1.47,1.43,2.94,2.16,4.43Zm3.36-1.74c-.32.27-.63.52-.92.79-.05.04-.08.14-.07.21.06.31.13.61.22.91.02.06.1.13.16.13.42.01.83.01,1.25,0,.05,0,.13-.07.15-.12.08-.31.16-.62.22-.93.01-.06-.02-.15-.06-.19-.3-.27-.62-.53-.94-.8Z"/>
</svg>